<?xml version="1.0" encoding="UTF-8" standalone="no"?>
<svg
   xmlns:dc="http://purl.org/dc/elements/1.1/"
   xmlns:cc="http://creativecommons.org/ns#"
   xmlns:rdf="http://www.w3.org/1999/02/22-rdf-syntax-ns#"
   xmlns:svg="http://www.w3.org/2000/svg"
   xmlns="http://www.w3.org/2000/svg"
   xmlns:sodipodi="http://sodipodi.sourceforge.net/DTD/sodipodi-0.dtd"
   xmlns:inkscape="http://www.inkscape.org/namespaces/inkscape"
   class="fuzion-loader"
   width="16"
   height="16"
   version="1.1"
   id="svg3763"
   sodipodi:docname="logo_16x16.svg"
   inkscape:version="0.92.4 (5da689c313, 2019-01-14)">
  <metadata
     id="metadata3767">
    <rdf:RDF>
      <cc:Work
         rdf:about="">
        <dc:format>image/svg+xml</dc:format>
        <dc:type
           rdf:resource="http://purl.org/dc/dcmitype/StillImage" />
        <dc:title />
      </cc:Work>
    </rdf:RDF>
  </metadata>
  <sodipodi:namedview
     pagecolor="#ffffff"
     bordercolor="#666666"
     borderopacity="1"
     objecttolerance="10"
     gridtolerance="10"
     guidetolerance="10"
     inkscape:pageopacity="0"
     inkscape:pageshadow="2"
     inkscape:window-width="1920"
     inkscape:window-height="1017"
     id="namedview3765"
     showgrid="false"
     inkscape:zoom="1"
     inkscape:cx="54.734916"
     inkscape:cy="-14.862642"
     inkscape:window-x="-9"
     inkscape:window-y="-9"
     inkscape:window-maximized="1"
     inkscape:current-layer="svg3763" />
  <defs
     id="defs3751">
    <linearGradient
       id="green-linear"
       x1="0"
       y1="0"
       x2="0"
       y2="200"
       gradientUnits="userSpaceOnUse"
       gradientTransform="scale(0.08)">
      <stop
         offset="0%"
         stop-color="#CEE61B"
         id="stop3741" />
      <stop
         offset="100%"
         stop-color="#A7BA14"
         id="stop3743" />
    </linearGradient>
    <linearGradient
       id="fadedWhite-linear"
       x1="0"
       y1="0"
       x2="0"
       y2="1">
      <stop
         offset="0%"
         stop-color="#DFDFDF"
         id="stop3746" />
      <stop
         offset="100%"
         stop-color="#BFBFBF"
         id="stop3748" />
    </linearGradient>
  </defs>
  <path
     class="body"
     d="M 1.6,0 H 14.4 A 1.6,1.6 0 0 1 16,1.6 V 14.4 A 1.6,1.6 0 0 1 14.4,16 H 1.6 A 1.6,1.6 0 0 1 0,14.4 V 1.6 A 1.6,1.6 0 0 1 1.6,0 Z"
     id="path3753"
     style="fill:url(#green-linear);stroke:none;stroke-width:0.08"
     inkscape:connector-curvature="0" />
  <path
     d="m 2.71875,1.91875 h 10.5625 c 0.3889,-2e-6 0.70417,0.315265 0.70417,0.704167 V 11.86253 C 13.98542,10.50138 12.52843,9.95581 11.52083,10 H 2.71875 C 2.329848,10 2.014581,9.6889 2.014583,9.3 V 2.622917 c 0,-0.388901 0.315266,-0.704167 0.704167,-0.704167 z"
     id="path3755"
     inkscape:connector-curvature="0"
     style="fill:#161b24;stroke:none;stroke-width:0.07041667"
     sodipodi:nodetypes="scsccscss" />
  <circle
     class="dot dot1"
     cx="3.5999908"
     cy="12.5"
     r="1.6"
     id="circle3757"
     style="fill:#161b24;stroke-width:0.08" />
  <circle
     class="dot dot2"
     cx="7.5999908"
     cy="12.5"
     r="1.6"
     id="circle3759"
     style="fill:#161b24;stroke-width:0.08" />
  <circle
     class="dot dot3"
     cx="11.599998"
     cy="12.5"
     r="1.6"
     id="circle3761"
     style="fill:#161b24;stroke-width:0.08" />
</svg>
